<svg width="320px" height="auto" viewBox="0 0 465 114" fill="none" xmlns="http://www.w3.org/2000/svg">
<path d="M163.859 51.7344H155.5V91.9829H163.859C165.44 91.9829 166.734 90.6892 166.734 89.108V54.6093C166.734 53.0281 165.44 51.7344 163.859 51.7344ZM204.107 51.7344C202.526 51.7344 201.232 53.0281 201.232 54.6093V89.108C201.232 90.6892 202.526 91.9829 204.107 91.9829H214V51.7344H204.107Z" fill="#A60304"/>
<path d="M230.998 45.9675C230.994 39.2544 229.52 32.6236 226.68 26.5407C223.841 20.4578 219.704 15.0702 214.561 10.7561C209.417 6.44193 203.392 3.30586 196.908 1.56802C190.423 -0.169816 183.637 -0.467305 177.026 0.69644C170.415 1.86018 164.138 4.45696 158.637 8.30445C153.136 12.152 148.543 17.1569 145.182 22.968C141.821 28.7791 139.773 35.2554 139.181 41.9424C138.589 48.6293 139.468 55.3648 141.756 61.6759C140.09 64.5227 139.149 67.7353 139.016 71.0311C138.884 74.3269 139.563 77.6048 140.995 80.5762C142.427 83.5477 144.567 86.1217 147.227 88.0717C149.888 90.0217 152.986 91.2879 156.251 91.7588V51.9243C153.447 52.3248 150.76 53.3165 148.368 54.8337C147.273 49.408 147.397 43.8068 148.73 38.4347C150.064 33.0626 152.574 28.0538 156.079 23.7702C159.585 19.4865 163.998 16.035 169 13.6649C174.002 11.2948 179.468 10.0654 185.003 10.0654C190.538 10.0654 196.004 11.2948 201.006 13.6649C206.008 16.035 210.421 19.4865 213.927 23.7702C217.432 28.0538 219.942 33.0626 221.276 38.4347C222.609 43.8068 222.733 49.408 221.638 54.8337C219.244 53.3147 216.555 52.3211 213.749 51.9185V91.7588C217.014 91.2879 220.112 90.0217 222.773 88.0717C225.433 86.1217 227.573 83.5477 229.005 80.5762C230.437 77.6048 231.116 74.3269 230.984 71.0311C230.851 67.7353 229.91 64.5227 228.244 61.6759C230.027 56.7713 230.998 51.4815 230.998 45.9675Z" fill="#A60304"/>
<path d="M18.48 89H12.6C11.5733 89 11.06 88.51 11.06 87.53V52.46C11.06 51.9467 10.8033 51.69 10.29 51.69H2.31C1.33 51.69 0.84 51.2 0.84 50.22V45.46C0.84 44.48 1.33 43.99 2.31 43.99H28.77C29.75 43.99 30.24 44.48 30.24 45.46V50.22C30.24 51.2 29.75 51.69 28.77 51.69H20.79C20.23 51.69 19.95 51.9467 19.95 52.46V87.53C19.95 88.51 19.46 89 18.48 89ZM48.4652 89H46.1552C42.5618 89 39.8318 88.02 37.9652 86.06C36.1452 84.1 35.2352 81.2767 35.2352 77.59V54.77C35.2352 53.79 35.7252 53.3 36.7052 53.3H42.6552C43.6352 53.3 44.1252 53.79 44.1252 54.77V77.17C44.1252 78.6633 44.4285 79.7367 45.0352 80.39C45.6885 80.9967 46.7385 81.3 48.1852 81.3H50.7752C53.9952 81.3 55.6052 79.5267 55.6052 75.98V54.77C55.6052 53.79 56.0952 53.3 57.0752 53.3H62.9552C63.9818 53.3 64.4952 53.79 64.4952 54.77V87.53C64.4952 88.51 63.9818 89 62.9552 89H57.0752C56.0952 89 55.6052 88.51 55.6052 87.53V85.22H55.3252C54.8118 86.48 53.9018 87.4367 52.5952 88.09C51.2885 88.6967 49.9118 89 48.4652 89ZM86.4358 89H73.1358C72.2024 89 71.7358 88.51 71.7358 87.53V83.05C71.7358 82.5367 71.8291 82.1867 72.0158 82C72.2024 81.7667 72.5758 81.65 73.1358 81.65H84.8258C87.1125 81.65 88.2558 80.95 88.2558 79.55V79.2C88.2558 78.08 87.2991 77.0067 85.3858 75.98L78.4558 72.13C76.0758 70.9167 74.3258 69.61 73.2058 68.21C72.0858 66.81 71.5258 65.0133 71.5258 62.82C71.5258 59.5533 72.3891 57.15 74.1158 55.61C75.8424 54.07 78.5491 53.3 82.2358 53.3H93.9258C94.8591 53.3 95.3258 53.79 95.3258 54.77V59.32C95.3258 59.8333 95.2325 60.2067 95.0458 60.44C94.8591 60.6267 94.4858 60.72 93.9258 60.72H84.1958C81.9091 60.72 80.7658 61.3033 80.7658 62.47V62.82C80.7658 63.8467 81.7691 64.8967 83.7758 65.97L90.8458 70.17C93.2725 71.4767 94.9758 72.83 95.9558 74.23C96.9358 75.5833 97.4258 77.38 97.4258 79.62C97.4258 85.8733 93.7625 89 86.4358 89ZM159.231 82.77V87.6C159.231 88.1133 159.114 88.4867 158.881 88.72C158.694 88.9067 158.321 89 157.761 89H147.331C143.644 89 140.798 88.02 138.791 86.06C136.784 84.1 135.781 81.2767 135.781 77.59V64.71C135.781 61.0233 136.784 58.2 138.791 56.24C140.798 54.28 143.644 53.3 147.331 53.3H157.761C158.741 53.3 159.231 53.79 159.231 54.77V59.6C159.231 60.1133 159.114 60.4867 158.881 60.72C158.694 60.9067 158.321 61 157.761 61H148.731C147.284 61 146.234 61.3267 145.581 61.98C144.974 62.5867 144.671 63.6367 144.671 65.13V77.17C144.671 78.6633 144.974 79.7367 145.581 80.39C146.234 80.9967 147.284 81.3 148.731 81.3H157.761C158.741 81.3 159.231 81.79 159.231 82.77Z" fill="white"/>
<path d="M178.49 89H176.81C173.123 89 170.277 88.02 168.27 86.06C166.263 84.1 165.26 81.2767 165.26 77.59V64.71C165.26 61.0233 166.263 58.2 168.27 56.24C170.277 54.28 173.123 53.3 176.81 53.3H192.98C194.007 53.3 194.52 53.79 194.52 54.77V87.53C194.52 88.51 194.007 89 192.98 89H187.1C186.12 89 185.63 88.51 185.63 87.53V85.22H185.35C184.837 86.48 183.927 87.4367 182.62 88.09C181.313 88.6967 179.937 89 178.49 89ZM185.63 75.98V61.77C185.63 61.2567 185.35 61 184.79 61H178.21C176.717 61 175.667 61.3267 175.06 61.98C174.453 62.5867 174.15 63.6367 174.15 65.13V77.17C174.15 78.6633 174.453 79.7367 175.06 80.39C175.667 80.9967 176.717 81.3 178.21 81.3H180.8C184.02 81.3 185.63 79.5267 185.63 75.98ZM216.401 89H203.101C202.167 89 201.701 88.51 201.701 87.53V83.05C201.701 82.5367 201.794 82.1867 201.981 82C202.167 81.7667 202.541 81.65 203.101 81.65H214.791C217.077 81.65 218.221 80.95 218.221 79.55V79.2C218.221 78.08 217.264 77.0067 215.351 75.98L208.421 72.13C206.041 70.9167 204.291 69.61 203.171 68.21C202.051 66.81 201.491 65.0133 201.491 62.82C201.491 59.5533 202.354 57.15 204.081 55.61C205.807 54.07 208.514 53.3 212.201 53.3H223.891C224.824 53.3 225.291 53.79 225.291 54.77V59.32C225.291 59.8333 225.197 60.2067 225.011 60.44C224.824 60.6267 224.451 60.72 223.891 60.72H214.161C211.874 60.72 210.731 61.3033 210.731 62.47V62.82C210.731 63.8467 211.734 64.8967 213.741 65.97L220.811 70.17C223.237 71.4767 224.941 72.83 225.921 74.23C226.901 75.5833 227.391 77.38 227.391 79.62C227.391 85.8733 223.727 89 216.401 89ZM257.034 82.77V87.6C257.034 88.1133 256.917 88.4867 256.684 88.72C256.497 88.9067 256.124 89 255.564 89H245.134C241.447 89 238.601 88.02 236.594 86.06C234.587 84.1 233.584 81.2767 233.584 77.59V64.71C233.584 61.0233 234.587 58.2 236.594 56.24C238.601 54.28 241.447 53.3 245.134 53.3H255.564C256.544 53.3 257.034 53.79 257.034 54.77V59.6C257.034 60.1133 256.917 60.4867 256.684 60.72C256.497 60.9067 256.124 61 255.564 61H246.534C245.087 61 244.037 61.3267 243.384 61.98C242.777 62.5867 242.474 63.6367 242.474 65.13V77.17C242.474 78.6633 242.777 79.7367 243.384 80.39C244.037 80.9967 245.087 81.3 246.534 81.3H255.564C256.544 81.3 257.034 81.79 257.034 82.77ZM280.843 89H274.613C270.927 89 268.08 88.02 266.073 86.06C264.067 84.1 263.063 81.2767 263.063 77.59V64.71C263.063 61.0233 264.067 58.2 266.073 56.24C268.08 54.28 270.927 53.3 274.613 53.3H280.843C284.483 53.3 287.307 54.3033 289.313 56.31C291.367 58.27 292.393 61.07 292.393 64.71V77.59C292.393 81.23 291.367 84.0533 289.313 86.06C287.307 88.02 284.483 89 280.843 89ZM275.943 81.37H279.513C281.007 81.37 282.057 81.0667 282.663 80.46C283.317 79.8533 283.643 78.8033 283.643 77.31V64.99C283.643 63.4967 283.317 62.4467 282.663 61.84C282.057 61.2333 281.007 60.93 279.513 60.93H275.943C274.45 60.93 273.4 61.2333 272.793 61.84C272.187 62.4467 271.883 63.4967 271.883 64.99V77.31C271.883 78.8033 272.187 79.8533 272.793 80.46C273.4 81.0667 274.45 81.37 275.943 81.37ZM313.589 89H300.289C299.355 89 298.889 88.51 298.889 87.53V83.05C298.889 82.5367 298.982 82.1867 299.169 82C299.355 81.7667 299.729 81.65 300.289 81.65H311.979C314.265 81.65 315.409 80.95 315.409 79.55V79.2C315.409 78.08 314.452 77.0067 312.539 75.98L305.609 72.13C303.229 70.9167 301.479 69.61 300.359 68.21C299.239 66.81 298.679 65.0133 298.679 62.82C298.679 59.5533 299.542 57.15 301.269 55.61C302.995 54.07 305.702 53.3 309.389 53.3H321.079C322.012 53.3 322.479 53.79 322.479 54.77V59.32C322.479 59.8333 322.385 60.2067 322.199 60.44C322.012 60.6267 321.639 60.72 321.079 60.72H311.349C309.062 60.72 307.919 61.3033 307.919 62.47V62.82C307.919 63.8467 308.922 64.8967 310.929 65.97L317.999 70.17C320.425 71.4767 322.129 72.83 323.109 74.23C324.089 75.5833 324.579 77.38 324.579 79.62C324.579 85.8733 320.915 89 313.589 89ZM339.242 78.92V87.53C339.242 88.51 338.799 89 337.912 89H331.682C330.749 89 330.282 88.51 330.282 87.53V78.99C330.282 78.0567 330.749 77.59 331.682 77.59H337.912C338.799 77.59 339.242 78.0333 339.242 78.92ZM369.209 82.77V87.6C369.209 88.1133 369.092 88.4867 368.859 88.72C368.672 88.9067 368.299 89 367.739 89H357.309C353.622 89 350.776 88.02 348.769 86.06C346.762 84.1 345.759 81.2767 345.759 77.59V64.71C345.759 61.0233 346.762 58.2 348.769 56.24C350.776 54.28 353.622 53.3 357.309 53.3H367.739C368.719 53.3 369.209 53.79 369.209 54.77V59.6C369.209 60.1133 369.092 60.4867 368.859 60.72C368.672 60.9067 368.299 61 367.739 61H358.709C357.262 61 356.212 61.3267 355.559 61.98C354.952 62.5867 354.649 63.6367 354.649 65.13V77.17C354.649 78.6633 354.952 79.7367 355.559 80.39C356.212 80.9967 357.262 81.3 358.709 81.3H367.739C368.719 81.3 369.209 81.79 369.209 82.77ZM393.018 89H386.788C383.102 89 380.255 88.02 378.248 86.06C376.242 84.1 375.238 81.2767 375.238 77.59V64.71C375.238 61.0233 376.242 58.2 378.248 56.24C380.255 54.28 383.102 53.3 386.788 53.3H393.018C396.658 53.3 399.482 54.3033 401.488 56.31C403.542 58.27 404.568 61.07 404.568 64.71V77.59C404.568 81.23 403.542 84.0533 401.488 86.06C399.482 88.02 396.658 89 393.018 89ZM388.118 81.37H391.688C393.182 81.37 394.232 81.0667 394.838 80.46C395.492 79.8533 395.818 78.8033 395.818 77.31V64.99C395.818 63.4967 395.492 62.4467 394.838 61.84C394.232 61.2333 393.182 60.93 391.688 60.93H388.118C386.625 60.93 385.575 61.2333 384.968 61.84C384.362 62.4467 384.058 63.4967 384.058 64.99V77.31C384.058 78.8033 384.362 79.8533 384.968 80.46C385.575 81.0667 386.625 81.37 388.118 81.37ZM419.674 89H413.724C412.744 89 412.254 88.51 412.254 87.53V54.77C412.254 53.79 412.744 53.3 413.724 53.3H419.674C420.654 53.3 421.144 53.79 421.144 54.77V57.08H421.424C421.984 55.96 422.917 55.05 424.224 54.35C425.577 53.65 427.117 53.3 428.844 53.3H430.804C434.864 53.3 437.78 54.7933 439.554 57.78C441.14 54.7933 443.87 53.3 447.744 53.3H449.774C453.367 53.3 456.074 54.28 457.894 56.24C459.76 58.2 460.694 61.0233 460.694 64.71V87.53C460.694 88.51 460.204 89 459.224 89H453.274C452.294 89 451.804 88.51 451.804 87.53V65.13C451.804 63.6367 451.5 62.5867 450.894 61.98C450.287 61.3267 449.237 61 447.744 61H445.994C442.774 61 441.164 62.7967 441.164 66.39V87.53C441.164 88.51 440.65 89 439.624 89H433.744C432.764 89 432.274 88.51 432.274 87.53V65.13C432.274 63.6367 431.947 62.5867 431.294 61.98C430.687 61.3267 429.637 61 428.144 61H425.974C422.754 61 421.144 62.7733 421.144 66.32V87.53C421.144 88.51 420.654 89 419.674 89Z" fill="#F2F2F2"/>
</svg>
