<svg width="375" height="77" viewBox="0 0 375 77" fill="none" xmlns="http://www.w3.org/2000/svg">
<path d="M20.53 61.8012V11.7012H2V6.26123H110.75V11.7012H27.61V61.8012H20.52H20.53Z" fill="white" stroke="white" stroke-width="3" stroke-miterlimit="10"/>
<path d="M340.74 11.7012H215.81V6.26123H372.54V11.7012H340.74Z" fill="white" stroke="white" stroke-width="3" stroke-miterlimit="10"/>
<path d="M66.16 21.5212H72.69V60.7112H66.16V53.8712C64.78 55.9712 63.43 57.5512 62.11 58.6112C60.78 59.6612 59.42 60.4612 58.02 61.0012C56.62 61.5412 55.09 61.8112 53.43 61.8112C49.75 61.8112 46.64 60.7912 44.08 58.7412C41.52 56.6912 40.24 52.5712 40.24 46.3712V21.5312H46.77V43.6312C46.77 49.3612 47.54 52.8212 49.09 54.0212C50.64 55.2112 52.56 55.8112 54.84 55.8112C56.82 55.8112 58.68 55.2412 60.43 54.1112C62.18 52.9812 63.57 51.3912 64.61 49.3412C65.65 47.2912 66.16 44.4512 66.16 40.8012V21.5412V21.5212Z" fill="white" stroke="white" stroke-width="3" stroke-miterlimit="10"/>
<path d="M80.26 50.3714H86.79V50.5114C86.79 52.1914 87.43 53.5914 88.7 54.7014C89.97 55.8114 92.13 56.3714 95.17 56.3714C97.84 56.3714 100 55.7214 101.66 54.4114C103.32 53.1014 104.15 51.5614 104.15 49.7814C104.15 47.3714 102.52 45.6614 99.27 44.6614L95.96 43.6414L93.76 42.9414L89.26 41.5414C84.12 39.6514 81.55 36.5014 81.55 32.1014C81.55 29.0114 82.79 26.3014 85.29 23.9614C87.78 21.6214 91.48 20.4514 96.39 20.4514C101.3 20.4514 104.68 21.4514 106.72 23.4514C108.77 25.4514 109.79 27.6714 109.79 30.1014V30.2414H103.23V30.1014C103.23 28.7914 102.57 27.7614 101.27 27.0114C99.96 26.2614 98.22 25.8914 96.04 25.8914C93.44 25.8914 91.46 26.4314 90.08 27.5214C88.7 28.6114 88.01 29.9514 88.01 31.5414C88.01 32.7614 88.46 33.7514 89.35 34.5014C90.24 35.2614 91.75 35.9414 93.87 36.5514L97.01 37.4314L99.28 38.1014C102.44 39.0114 104.41 39.6614 105.19 40.0314C105.97 40.4014 106.75 40.8814 107.54 41.4714C108.63 42.3114 109.44 43.3314 109.96 44.5214C110.48 45.7114 110.74 47.1014 110.74 48.7014C110.74 52.4014 109.42 55.5114 106.78 58.0314C104.14 60.5614 100.28 61.8214 95.2 61.8214C91.99 61.8214 89.32 61.3414 87.2 60.3814C85.08 59.4214 83.39 58.0914 82.14 56.4014C80.88 54.7014 80.25 52.7514 80.25 50.5214V50.3814L80.26 50.3714Z" fill="white" stroke="white" stroke-width="3" stroke-miterlimit="10"/>
<path d="M170.98 50.6514H177.54V51.0014C177.54 52.7514 176.87 54.5214 175.54 56.3014C174.21 58.0814 172.46 59.4414 170.3 60.3914C168.14 61.3414 165.54 61.8114 162.5 61.8114C156.67 61.8114 152.19 59.9814 149.04 56.3214C145.89 52.6614 144.32 47.5914 144.32 41.1114C144.32 34.6314 145.89 29.6014 149.04 25.9414C152.19 22.2814 156.68 20.4514 162.5 20.4514C165.54 20.4514 168.14 20.9214 170.3 21.8714C172.46 22.8214 174.2 24.1214 175.54 25.7614C176.87 27.4114 177.54 29.2414 177.54 31.2514V31.6014H170.98V31.2514C171.05 29.8214 170.41 28.5714 169.07 27.5014C167.73 26.4214 165.66 25.8914 162.86 25.8914C159.54 25.8914 156.75 27.1014 154.5 29.5014C152.25 31.9114 151.12 35.7814 151.12 41.1114C151.12 46.4414 152.25 50.3514 154.5 52.7614C156.75 55.1714 159.54 56.3714 162.86 56.3714C165.66 56.3714 167.71 55.8314 169.02 54.7614C170.33 53.6814 170.98 52.4314 170.98 51.0114V50.6614V50.6514Z" fill="white" stroke="white" stroke-width="3" stroke-miterlimit="10"/>
<path d="M208.94 60.7214C208.26 58.6214 207.92 56.8014 207.92 55.2814C205.14 58.1114 202.76 59.9114 200.79 60.6714C198.82 61.4314 196.93 61.8114 195.13 61.8114C192.1 61.8114 189.5 60.8614 187.32 58.9514C185.14 57.0514 184.06 54.4214 184.06 51.0814C184.06 47.3014 185.59 44.3814 188.66 42.3214C191.72 40.2614 197.01 38.4914 204.5 36.9914L207.92 36.3214V31.9014C207.92 29.4914 207.14 27.8014 205.59 26.8314C204.04 25.8614 202.17 25.3714 199.98 25.3714C197.37 25.3714 195.33 25.9714 193.87 27.1614C192.41 28.3514 191.67 29.7414 191.67 31.3414V31.9014H184.58V31.3714C184.58 29.6414 185.3 27.8514 186.73 26.0014C188.16 24.1514 190.06 22.7614 192.43 21.8214C194.8 20.8814 197.39 20.4214 200.21 20.4214C203.03 20.4214 205.55 20.8614 207.84 21.7514C210.13 22.6414 211.8 23.8414 212.86 25.3414C213.91 26.8514 214.44 29.6814 214.44 33.8414V49.0514C214.44 50.7114 214.48 52.4614 214.56 54.2914C214.64 56.1214 215.06 58.2614 215.81 60.6914H208.93L208.94 60.7214ZM207.92 40.9714L206.03 41.4614C199.65 43.0714 195.57 44.6014 193.79 46.0514C192.01 47.5014 191.12 49.2214 191.12 51.2314C191.12 52.2614 191.38 53.2114 191.91 54.1014C192.44 54.9914 193.22 55.6714 194.26 56.1614C195.3 56.6514 196.32 56.9014 197.34 56.9014C199.1 56.9014 200.83 56.3714 202.53 55.3114C204.23 54.2514 205.56 52.8314 206.5 51.0614C207.45 49.2914 207.92 47.2214 207.92 44.8614V40.9714Z" fill="white" stroke="white" stroke-width="3" stroke-miterlimit="10"/>
<path d="M222.73 50.3714H229.26V50.5114C229.26 52.1914 229.9 53.5914 231.17 54.7014C232.44 55.8114 234.6 56.3714 237.64 56.3714C240.31 56.3714 242.47 55.7214 244.13 54.4114C245.79 53.1014 246.62 51.5614 246.62 49.7814C246.62 47.3714 244.99 45.6614 241.74 44.6614L238.43 43.6414L236.23 42.9414L231.73 41.5414C226.59 39.6514 224.02 36.5014 224.02 32.1014C224.02 29.0114 225.26 26.3014 227.76 23.9614C230.25 21.6214 233.95 20.4514 238.86 20.4514C243.77 20.4514 247.15 21.4514 249.19 23.4514C251.23 25.4514 252.26 27.6714 252.26 30.1014V30.2414H245.7V30.1014C245.7 28.7914 245.04 27.7614 243.74 27.0114C242.43 26.2614 240.69 25.8914 238.51 25.8914C235.91 25.8914 233.93 26.4314 232.55 27.5214C231.17 28.6114 230.48 29.9514 230.48 31.5414C230.48 32.7614 230.93 33.7514 231.82 34.5014C232.71 35.2614 234.22 35.9414 236.34 36.5514L239.48 37.4314L241.75 38.1014C244.91 39.0114 246.88 39.6614 247.66 40.0314C248.44 40.4014 249.22 40.8814 250.01 41.4714C251.1 42.3114 251.91 43.3314 252.43 44.5214C252.95 45.7114 253.21 47.1014 253.21 48.7014C253.21 52.4014 251.89 55.5114 249.25 58.0314C246.61 60.5614 242.75 61.8214 237.67 61.8214C234.46 61.8214 231.79 61.3414 229.67 60.3814C227.55 59.4214 225.86 58.0914 224.61 56.4014C223.35 54.7014 222.72 52.7514 222.72 50.5214V50.3814L222.73 50.3714Z" fill="white" stroke="white" stroke-width="3" stroke-miterlimit="10"/>
<path d="M286.52 50.6514H293.08V51.0014C293.08 52.7514 292.41 54.5214 291.08 56.3014C289.75 58.0814 288 59.4414 285.84 60.3914C283.68 61.3414 281.08 61.8114 278.04 61.8114C272.21 61.8114 267.73 59.9814 264.58 56.3214C261.43 52.6614 259.86 47.5914 259.86 41.1114C259.86 34.6314 261.43 29.6014 264.58 25.9414C267.73 22.2814 272.22 20.4514 278.04 20.4514C281.08 20.4514 283.68 20.9214 285.84 21.8714C288 22.8214 289.74 24.1214 291.08 25.7614C292.41 27.4114 293.08 29.2414 293.08 31.2514V31.6014H286.52V31.2514C286.59 29.8214 285.95 28.5714 284.61 27.5014C283.27 26.4214 281.2 25.8914 278.4 25.8914C275.08 25.8914 272.29 27.1014 270.04 29.5014C267.79 31.9114 266.66 35.7814 266.66 41.1114C266.66 46.4414 267.79 50.3514 270.04 52.7614C272.29 55.1714 275.08 56.3714 278.4 56.3714C281.2 56.3714 283.25 55.8314 284.56 54.7614C285.86 53.6814 286.52 52.4314 286.52 51.0114V50.6614V50.6514Z" fill="white" stroke="white" stroke-width="3" stroke-miterlimit="10"/>
<path d="M317.57 61.8014C312.45 61.8014 308.08 60.0614 304.47 56.5914C300.86 53.1214 299.05 47.9514 299.05 41.1014C299.05 34.2514 300.86 29.1214 304.47 25.6414C308.08 22.1614 312.45 20.4314 317.57 20.4314C322.69 20.4314 327.03 22.1714 330.64 25.6414C334.25 29.1114 336.06 34.2714 336.06 41.1014C336.06 47.9314 334.25 53.1214 330.64 56.5914C327.03 60.0614 322.67 61.8014 317.57 61.8014ZM317.57 56.3614C321.08 56.3614 323.9 54.9614 326.04 52.1714C328.18 49.3814 329.25 45.6914 329.25 41.1014C329.25 36.5114 328.18 32.8614 326.04 30.0714C323.9 27.2814 321.08 25.8814 317.57 25.8814C314.06 25.8814 311.2 27.2814 309.06 30.0714C306.92 32.8714 305.85 36.5414 305.85 41.1014C305.85 45.6614 306.92 49.3714 309.06 52.1714C311.2 54.9714 314.04 56.3614 317.57 56.3614Z" fill="white" stroke="white" stroke-width="3" stroke-miterlimit="10"/>
<path d="M342.06 50.3714H348.59V50.5114C348.59 52.1914 349.23 53.5914 350.5 54.7014C351.77 55.8114 353.93 56.3714 356.97 56.3714C359.64 56.3714 361.8 55.7214 363.46 54.4114C365.12 53.1014 365.95 51.5614 365.95 49.7814C365.95 47.3714 364.32 45.6614 361.07 44.6614L357.76 43.6414L355.56 42.9414L351.06 41.5414C345.92 39.6514 343.35 36.5014 343.35 32.1014C343.35 29.0114 344.59 26.3014 347.09 23.9614C349.58 21.6214 353.28 20.4514 358.19 20.4514C363.1 20.4514 366.48 21.4514 368.52 23.4514C370.56 25.4514 371.59 27.6714 371.59 30.1014V30.2414H365.03V30.1014C365.03 28.7914 364.37 27.7614 363.07 27.0114C361.76 26.2614 360.02 25.8914 357.84 25.8914C355.24 25.8914 353.26 26.4314 351.88 27.5214C350.5 28.6114 349.81 29.9514 349.81 31.5414C349.81 32.7614 350.26 33.7514 351.15 34.5014C352.04 35.2614 353.55 35.9414 355.67 36.5514L358.81 37.4314L361.08 38.1014C364.24 39.0114 366.21 39.6614 366.99 40.0314C367.77 40.4014 368.55 40.8814 369.34 41.4714C370.43 42.3114 371.24 43.3314 371.76 44.5214C372.28 45.7114 372.54 47.1014 372.54 48.7014C372.54 52.4014 371.22 55.5114 368.58 58.0314C365.94 60.5614 362.08 61.8214 357 61.8214C353.79 61.8214 351.12 61.3414 349 60.3814C346.88 59.4214 345.19 58.0914 343.94 56.4014C342.68 54.7014 342.05 52.7514 342.05 50.5214V50.3814L342.06 50.3714Z" fill="white" stroke="white" stroke-width="3" stroke-miterlimit="10"/>
<path d="M155.67 6.72132C153.77 6.37132 151.88 5.90132 149.96 5.71132C147.76 5.49132 145.66 5.29132 143.48 6.66132C141.58 7.85132 138.98 7.88132 136.86 8.81132C124.36 14.2813 118.59 27.3213 121.96 40.5213C123.13 45.1213 124.63 49.1213 128.04 52.3713C128.41 52.7213 128.81 53.0413 129.2 53.3713C129.26 53.1713 129.32 52.9813 129.39 52.7813C130.4 52.9613 131.56 52.8713 132.4 53.3513C140.38 57.8313 148.29 62.4313 156.26 66.9213C157.89 67.8413 158.27 68.7713 157.15 70.3013C156.69 70.9213 156.38 71.6513 155.97 72.3213C154.56 74.6613 152.67 75.4813 150.04 74.6713C148.96 74.3413 148.3 74.5313 147.47 75.2313C145.14 77.2313 144.47 77.2413 141.8 75.7213C138.65 73.9113 135.49 72.1113 132.34 70.3013C129.34 68.5813 129.04 67.8313 130.03 64.1713C130.73 64.4513 131.41 64.7313 132.09 65.0113C132.14 64.9213 132.2 64.8313 132.25 64.7513C131.6 64.3813 130.94 64.0013 130.29 63.6313C128.13 62.4013 126.97 60.6413 127.21 58.0513C127.25 57.5913 126.94 56.9613 126.58 56.6313C123.58 53.8213 121.61 50.1813 119.02 47.1113C114.32 41.5313 114.44 35.2313 114.99 28.8213C115.55 22.2713 118.34 16.5213 122.69 11.5313C127.37 6.17132 133.18 2.73132 140.09 1.21132C141.32 0.941319 142.69 1.31132 144 1.40132C144.44 1.43132 144.88 1.49132 145.32 1.55132C149.21 2.05132 153.1 2.58132 157 3.04132C157.63 3.11132 158.42 3.10132 158.91 2.79132C160.93 1.50132 162.89 1.43132 164.94 2.66132C166.21 3.43132 167.52 4.14132 168.94 4.67132C167.79 3.92132 166.64 3.18132 165.49 2.43132C167.52 -0.268681 168.99 -0.618681 171.62 0.881319C174.89 2.75132 178.16 4.62132 181.42 6.49132C184.1 8.03132 184.39 8.60132 183.87 11.6713C183.7 12.6813 183.69 13.3413 184.68 14.1113C186.65 15.6513 186.95 18.1713 185.66 20.4313C182.96 25.1613 183.8 24.8413 179.34 22.3013C172 18.1313 164.67 13.9513 157.39 9.69132C156.56 9.20132 156.03 8.19132 155.36 7.43132C155.46 7.20132 155.56 6.97132 155.66 6.74132L155.67 6.72132Z" fill="#BB1727"/>
</svg>
